<svg width="128" height="128" viewBox="0 0 128 128" fill="none" xmlns="http://www.w3.org/2000/svg">
<rect width="128" height="128" rx="20" fill="#222222"/>
<path d="M39.5117 78L39.4023 74.3086C37.9076 75.7852 36.3854 76.8516 34.8359 77.5078C33.3047 78.1641 31.6914 78.4922 29.9961 78.4922C28.4284 78.4922 27.0885 78.2917 25.9766 77.8906C24.8646 77.4896 23.944 76.9427 23.2148 76.25C22.5039 75.5391 21.9753 74.7096 21.6289 73.7617C21.3008 72.8138 21.1367 71.7839 21.1367 70.6719C21.1367 67.9193 22.1576 65.7682 24.1992 64.2188C26.2591 62.651 29.2943 61.8672 33.3047 61.8672H38.9922V59.4609C38.9922 57.8385 38.4727 56.5443 37.4336 55.5781C36.3945 54.5938 34.8086 54.1016 32.6758 54.1016C31.1263 54.1016 29.5951 54.2747 28.082 54.6211C26.5872 54.9674 25.0378 55.4596 23.4336 56.0977V51.8047C24.0352 51.5859 24.7005 51.3763 25.4297 51.1758C26.1771 50.957 26.9609 50.7656 27.7812 50.6016C28.6016 50.4375 29.4583 50.3099 30.3516 50.2188C31.2448 50.1094 32.1471 50.0547 33.0586 50.0547C34.7174 50.0547 36.2122 50.237 37.543 50.6016C38.8737 50.9661 39.9948 51.5221 40.9062 52.2695C41.8359 53.0169 42.5469 53.9557 43.0391 55.0859C43.5312 56.2161 43.7773 57.5469 43.7773 59.0781V78H39.5117ZM38.9922 65.5039H32.9492C31.7643 65.5039 30.7435 65.6224 29.8867 65.8594C29.0299 66.0964 28.3281 66.4336 27.7812 66.8711C27.2344 67.3086 26.8242 67.8372 26.5508 68.457C26.2956 69.0586 26.168 69.7422 26.168 70.5078C26.168 71.0365 26.25 71.5469 26.4141 72.0391C26.5781 72.513 26.8424 72.9414 27.207 73.3242C27.5716 73.6888 28.0456 73.9805 28.6289 74.1992C29.2122 74.418 29.9232 74.5273 30.7617 74.5273C31.8555 74.5273 33.1042 74.1992 34.5078 73.543C35.9297 72.8685 37.4245 71.8112 38.9922 70.3711V65.5039ZM76.125 63.7812C76.125 66.224 75.7786 68.3568 75.0859 70.1797C74.4115 72.0026 73.4727 73.5156 72.2695 74.7188C71.0664 75.9219 69.6445 76.8242 68.0039 77.4258C66.3633 78.0273 64.5859 78.3281 62.6719 78.3281C61.7969 78.3281 60.9219 78.2826 60.0469 78.1914C59.1901 78.1003 58.3151 77.9453 57.4219 77.7266V89.2109H52.6641V50.5469H56.9023L57.2031 55.1406C58.5703 53.263 60.0286 51.9505 61.5781 51.2031C63.1276 50.4375 64.8047 50.0547 66.6094 50.0547C68.1771 50.0547 69.5534 50.3828 70.7383 51.0391C71.9232 51.6953 72.9167 52.625 73.7188 53.8281C74.5208 55.013 75.1224 56.4531 75.5234 58.1484C75.9245 59.8255 76.125 61.7031 76.125 63.7812ZM71.2578 64C71.2578 62.5599 71.1484 61.2383 70.9297 60.0352C70.7292 58.832 70.401 57.8021 69.9453 56.9453C69.4896 56.0885 68.9062 55.4232 68.1953 54.9492C67.4844 54.457 66.6367 54.2109 65.6523 54.2109C65.0508 54.2109 64.4401 54.3112 63.8203 54.5117C63.2005 54.694 62.5534 55.013 61.8789 55.4688C61.2227 55.9062 60.5208 56.4987 59.7734 57.2461C59.0443 57.9753 58.2604 58.8867 57.4219 59.9805V73.2969C58.2969 73.6615 59.2174 73.9531 60.1836 74.1719C61.1497 74.3724 62.0977 74.4727 63.0273 74.4727C65.5977 74.4727 67.612 73.6068 69.0703 71.875C70.5286 70.125 71.2578 67.5 71.2578 64ZM108.199 78H101.883L94.4727 67.5273L87.1445 78H80.9922L91.6289 64.2188L81.4844 50.5469H87.582L94.8008 61.1016L101.883 50.5469H107.762L97.4531 64.3281L108.199 78Z" fill="#9B6430"/>
</svg>
